<?xml version="1.0" standalone="no"?>
<!DOCTYPE svg PUBLIC "-//W3C//DTD SVG 20010904//EN"
 "http://www.w3.org/TR/2001/REC-SVG-20010904/DTD/svg10.dtd">
<svg version="1.0" xmlns="http://www.w3.org/2000/svg"
 width="586.000000pt" height="586.000000pt" viewBox="0 0 586.000000 586.000000"
 preserveAspectRatio="xMidYMid meet">
<metadata>
Created by potrace 1.11, written by Peter Selinger 2001-2013
</metadata>
<g transform="translate(0.000000,586.000000) scale(0.100000,-0.100000)"
fill="#000000" stroke="none">
<path d="M2749 5625 c-2 -2 -40 -6 -84 -9 -80 -5 -284 -32 -317 -42 -9 -3 -25
-7 -35 -9 -268 -55 -524 -145 -778 -275 -213 -108 -390 -224 -580 -379 -85
-69 -353 -335 -420 -416 -182 -220 -357 -494 -456 -713 -22 -48 -45 -97 -51
-109 -6 -13 -9 -25 -7 -27 6 -5 174 -76 181 -76 3 0 42 73 86 163 450 910
1276 1518 2257 1661 226 33 555 36 750 6 33 -5 80 -12 105 -15 25 -4 77 -13
115 -21 39 -9 78 -17 87 -19 83 -18 276 -77 343 -105 11 -4 56 -23 100 -40
108 -44 281 -131 390 -197 79 -48 281 -187 295 -202 3 -4 43 -38 90 -77 320
-267 577 -599 781 -1009 39 -77 75 -139 80 -137 5 1 29 11 52 21 23 10 61 26
84 36 49 20 51 7 -33 180 -160 331 -364 616 -633 886 -407 406 -870 676 -1414
824 -105 28 -104 28 -222 50 -126 23 -137 25 -195 31 -30 3 -68 8 -85 11 -36
6 -481 14 -486 8z"/>
<path d="M2767 4804 c-1 -1 -40 -4 -85 -8 -552 -43 -1059 -262 -1402 -606 -47
-47 -101 -105 -120 -129 -19 -24 -39 -48 -45 -55 -10 -11 -35 -49 -89 -134
-28 -45 -96 -188 -96 -203 0 -5 851 -9 1971 -9 l1970 0 -6 23 c-13 42 -87 182
-133 252 -207 312 -537 561 -945 715 -147 55 -346 107 -477 124 -25 3 -54 8
-66 10 -62 12 -465 29 -477 20z"/>
<path d="M1329 3368 c-1 -2 -2 -198 -3 -435 -1 -284 2 -433 9 -434 5 0 56 -2
113 -2 l102 -2 1 40 c0 22 1 109 1 193 1 104 4 152 12 153 62 4 307 1 312 -4
4 -4 7 -90 7 -192 0 -128 3 -185 11 -186 39 -3 193 -4 204 -1 9 3 12 100 12
438 l0 434 -114 0 -114 0 0 -132 c0 -73 0 -145 -1 -160 l-1 -26 -164 -1 -165
-1 0 138 c0 75 0 147 0 160 -1 21 -4 22 -111 22 -60 0 -111 -1 -111 -2z"/>
<path d="M2475 3158 c-43 -117 -90 -247 -106 -288 -16 -41 -53 -140 -82 -220
l-54 -145 25 -5 c21 -4 113 -5 195 -1 9 1 17 9 17 19 1 9 13 48 28 87 l28 70
155 0 156 0 28 -83 c15 -45 32 -85 38 -89 13 -8 215 -8 224 0 5 6 -3 34 -27
92 -5 11 -71 190 -147 397 l-138 378 -131 0 -131 0 -78 -212z m305 -318 c0 -7
-187 -6 -194 1 -5 5 76 258 90 281 5 7 103 -260 104 -282z"/>
<path d="M3220 3291 l0 -78 67 -2 c37 -1 69 -3 71 -6 3 -2 5 -127 5 -277 l1
-273 -72 0 -72 1 0 -78 c0 -55 4 -78 13 -79 66 -4 481 -3 488 2 12 7 18 125 7
142 -4 7 -32 12 -70 12 l-63 0 -3 278 -2 277 27 1 c16 0 47 1 71 1 l42 0 0 79
0 79 -255 0 -255 0 0 -79z"/>
<path d="M3825 3288 l0 -83 136 -3 136 -3 0 -345 c0 -189 3 -347 6 -350 10
-11 209 -9 215 1 4 6 7 163 7 350 l0 340 137 3 136 3 0 84 -1 85 -387 0 -386
0 1 -82z"/>
<path d="M5625 2237 c-93 -213 -270 -501 -429 -699 -111 -138 -315 -342 -453
-453 -432 -347 -951 -568 -1478 -630 -27 -3 -66 -8 -85 -11 -58 -9 -400 -11
-480 -3 -149 15 -185 19 -210 23 -14 3 -41 7 -60 10 -31 5 -96 17 -157 30 -13
3 -66 16 -118 31 -819 223 -1524 821 -1908 1618 -26 54 -47 102 -47 107 0 6
-3 10 -7 10 -7 0 -183 -70 -192 -76 -7 -6 130 -279 198 -393 139 -235 292
-432 496 -637 367 -371 772 -623 1256 -784 138 -45 318 -91 414 -105 22 -3 46
-8 53 -10 7 -3 40 -7 75 -10 34 -4 67 -8 74 -10 72 -23 596 -23 708 0 11 2 40
7 65 10 25 3 54 7 65 9 11 2 40 7 65 11 25 4 90 18 145 31 479 112 920 333
1305 654 95 79 290 272 368 365 42 50 79 92 82 95 10 9 137 185 177 245 95
144 223 378 277 509 19 46 19 43 4 49 -7 3 -50 21 -94 40 l-82 35 -27 -61z"/>
<path d="M900 2243 c0 -7 51 -136 71 -178 24 -52 121 -215 148 -249 201 -249
417 -422 694 -556 132 -63 346 -141 453 -165 106 -23 174 -37 199 -41 17 -2
39 -6 50 -8 22 -4 108 -14 195 -22 75 -6 300 -6 380 0 84 7 161 16 180 21 8 2
39 7 69 10 73 9 268 58 371 93 303 103 569 259 779 457 51 49 188 204 219 251
67 98 175 315 184 369 3 19 -10 20 -1994 20 -1099 0 -1998 -1 -1998 -2z"/>
</g>
</svg>
