<?xml version="1.0" standalone="no"?>
<!DOCTYPE svg PUBLIC "-//W3C//DTD SVG 20010904//EN"
 "http://www.w3.org/TR/2001/REC-SVG-20010904/DTD/svg10.dtd">
<svg version="1.0" xmlns="http://www.w3.org/2000/svg"
 width="507.000000pt" height="507.000000pt" viewBox="0 0 507.000000 507.000000"
 preserveAspectRatio="xMidYMid meet">
<metadata>
Created by potrace 1.11, written by Peter Selinger 2001-2013
</metadata>
<g transform="translate(0.000000,507.000000) scale(0.100000,-0.100000)"
fill="#000000" stroke="none">
<path d="M2317 4642 c-133 -355 -175 -468 -187 -497 -5 -11 -20 -49 -33 -85
-14 -36 -41 -108 -61 -160 -20 -52 -36 -100 -36 -106 0 -13 329 -18 346 -5 5
3 27 42 48 86 22 44 43 82 47 85 6 4 370 5 389 1 3 0 25 -41 49 -90 l44 -88
204 -1 c148 0 203 4 199 12 -9 22 -408 973 -448 1069 l-40 97 -202 0 -201 0
-118 -318z m397 -297 c3 -11 10 -36 15 -55 6 -19 11 -37 11 -41 0 -3 -45 -6
-101 -7 l-101 -1 5 27 c6 37 88 335 95 346 4 7 53 -164 76 -269z"/>
<path d="M3283 4471 c-106 -26 -125 -130 -35 -199 32 -24 44 -27 166 -33 72
-4 144 -10 161 -13 51 -12 167 -64 253 -114 l83 -49 -41 -28 c-22 -15 -40 -30
-40 -34 0 -3 46 -54 103 -112 243 -253 455 -474 488 -510 31 -34 59 -54 46
-31 -3 4 -8 43 -12 87 -3 44 -8 87 -10 95 -2 8 -7 47 -10 85 -4 39 -8 81 -10
95 -4 26 -12 96 -21 185 -3 28 -7 66 -9 85 -2 19 -9 85 -15 145 -7 61 -13 119
-15 130 -2 11 -4 24 -4 28 -1 4 -41 -13 -90 -39 l-89 -47 -69 50 c-141 104
-285 165 -493 207 -118 24 -276 31 -337 17z"/>
<path d="M1847 4434 c-1 -1 -47 -5 -102 -9 -55 -3 -120 -8 -145 -10 -25 -1
-90 -6 -145 -9 -55 -4 -113 -9 -130 -11 -16 -2 -77 -7 -135 -10 -96 -6 -161
-13 -167 -18 -1 -1 15 -43 36 -92 l38 -90 -64 -70 c-76 -83 -136 -171 -192
-282 -37 -72 -77 -171 -86 -213 -1 -8 -8 -33 -13 -55 -6 -22 -14 -67 -18 -100
-24 -198 4 -268 105 -269 89 -1 111 37 137 229 20 153 76 303 160 432 67 101
66 101 93 33 25 -63 31 -68 53 -47 7 6 42 37 78 67 36 30 72 61 81 70 9 8 38
33 64 55 26 22 53 45 59 50 6 6 38 33 71 60 33 28 65 55 70 61 6 6 67 59 138
119 70 59 127 109 127 111 0 4 -109 1 -113 -2z"/>
<path d="M244 2540 c-108 -289 -208 -551 -221 -584 -13 -32 -22 -60 -19 -63 2
-3 82 -6 177 -6 l172 -2 46 93 46 92 197 0 198 0 41 -82 c22 -46 44 -87 49
-92 6 -6 300 -12 388 -7 15 1 11 21 -18 86 -24 53 -312 741 -390 930 -34 83
-64 152 -67 155 -2 3 -94 5 -203 5 l-198 0 -198 -525z m441 45 c20 -77 39
-150 41 -162 2 -12 9 -34 14 -48 11 -28 21 -26 -118 -27 -40 -1 -74 1 -76 3
-3 2 18 89 46 192 28 103 52 186 53 185 2 -2 20 -66 40 -143z"/>
<path d="M3965 3060 c-2 -3 -2 -63 -2 -135 l2 -130 175 -2 c96 -1 183 -2 193
-2 16 -1 17 -30 17 -453 l0 -453 158 2 c86 1 164 2 173 2 15 1 16 43 15 451
-1 394 1 450 14 451 8 0 93 0 188 0 l172 0 0 137 0 137 -551 0 c-303 0 -552
-2 -554 -5z"/>
<path d="M809 1755 c-1 -22 -2 -56 -4 -75 -1 -19 -5 -98 -9 -175 -4 -77 -9
-165 -11 -195 -2 -30 -7 -109 -10 -175 -3 -66 -8 -162 -11 -212 -3 -51 -1 -93
3 -93 4 0 49 14 99 32 l90 32 85 -74 c99 -86 252 -189 341 -229 102 -47 258
-88 437 -116 191 -31 261 1 257 113 -3 92 -61 122 -227 116 -98 -3 -308 55
-444 123 -88 44 -200 123 -188 133 4 4 32 15 61 25 53 17 61 26 41 48 -6 7
-113 167 -239 357 -126 190 -238 358 -249 375 l-21 30 -1 -40z"/>
<path d="M4373 1784 c-26 -11 -54 -76 -73 -173 -50 -250 -150 -462 -286 -609
l-49 -54 -24 61 c-13 34 -27 61 -30 61 -6 0 -31 -22 -190 -168 -122 -113 -131
-121 -241 -222 -52 -47 -125 -115 -164 -152 l-71 -66 40 4 c22 2 83 6 135 9
52 3 122 7 155 10 33 2 105 7 160 10 55 3 127 8 160 10 33 2 110 7 170 10 61
4 112 8 114 10 2 2 -21 43 -52 91 l-55 88 49 44 c84 76 199 268 279 467 34 84
99 269 105 296 2 9 7 32 12 50 15 55 15 137 1 169 -20 45 -96 73 -145 54z"/>
<path d="M2439 1305 c-1 0 -1 -1166 0 -1182 1 -10 46 -13 190 -13 l188 0 -1
597 -1 598 -187 0 c-104 0 -188 0 -189 0z"/>
</g>
</svg>
